<?xml version="1.0" encoding="us-ascii" standalone="no"?><svg xmlns="http://www.w3.org/2000/svg" xmlns:xlink="http://www.w3.org/1999/xlink" contentStyleType="text/css" height="2743.75px" preserveAspectRatio="none" style="width:4675px;height:2743px;background:#FFFFFF;" version="1.1" viewBox="0 0 4675 2743" width="4675px" zoomAndPan="magnify"><defs><filter height="300%" id="fvjunez87s5wp" width="300%" x="-1" y="-1"><feGaussianBlur result="blurOut" stdDeviation="6.25"/><feColorMatrix in="blurOut" result="blurOut2" type="matrix" values="0 0 0 0 0 0 0 0 0 0 0 0 0 0 0 0 0 0 .4 0"/><feOffset dx="12.5" dy="12.5" in="blurOut2" result="blurOut3"/><feBlend in="SourceGraphic" in2="blurOut3" mode="normal"/></filter></defs><g><text fill="#2E5D95" font-family="sans-serif" font-size="62.5" font-weight="bold" lengthAdjust="spacing" textLength="639.4531" x="1995.8984" y="96.1304">&#127760; ROGUE AP Project</text><!--cluster MainRouter--><g id="cluster_MainRouter"><rect fill="#E0F0FF" filter="url(#fvjunez87s5wp)" height="471.875" rx="7.8125" ry="7.8125" style="stroke:#3B73B9;stroke-width:3.125;" width="650" x="3987.5" y="166.1133"/><text fill="#000000" font-family="sans-serif" font-size="43.75" font-style="italic" lengthAdjust="spacing" textLength="184.375" x="4220.3125" y="217.7795">&#171;Router&#187;</text><text fill="#000000" font-family="sans-serif" font-size="43.75" font-weight="bold" lengthAdjust="spacing" textLength="306.25" x="4159.375" y="272.8088">MAIN ROUTER</text><text fill="#666666" font-family="sans-serif" font-size="43.75" font-weight="bold" lengthAdjust="spacing" textLength="312.5" x="4156.25" y="327.8381">&#128732; ISP Gateway</text></g><!--cluster Host--><g id="cluster_Host"><rect fill="#E3FCEC" filter="url(#fvjunez87s5wp)" height="1232.8125" rx="7.8125" ry="7.8125" style="stroke:#27AE60;stroke-width:3.125;" width="1087.5" x="3343.75" y="948.9258"/><text fill="#000000" font-family="sans-serif" font-size="43.75" font-style="italic" lengthAdjust="spacing" textLength="140.625" x="3817.1875" y="1000.592">&#171;Host&#187;</text><text fill="#000000" font-family="sans-serif" font-size="43.75" font-weight="bold" lengthAdjust="spacing" textLength="334.375" x="3720.3125" y="1055.6213">HOST MACHINE</text><text fill="#666666" font-family="sans-serif" font-size="43.75" font-weight="bold" lengthAdjust="spacing" textLength="612.5" x="3581.25" y="1110.6506">&#129695; Windows 11 (ICS Enabled)</text></g><!--cluster WifiNIC--><g id="cluster_WifiNIC"><rect fill="#FAFAFA" filter="url(#fvjunez87s5wp)" height="325" rx="7.8125" ry="7.8125" style="stroke:#444444;stroke-width:3.125;" width="368.75" x="3962.5" y="1220.8008"/><rect fill="#FAFAFA" height="31.25" style="stroke:#444444;stroke-width:3.125;" width="46.875" x="4268.75" y="1236.4258"/><rect fill="#FAFAFA" height="6.25" style="stroke:#444444;stroke-width:3.125;" width="12.5" x="4262.5" y="1242.6758"/><rect fill="#FAFAFA" height="6.25" style="stroke:#444444;stroke-width:3.125;" width="12.5" x="4262.5" y="1255.1758"/><text fill="#000000" font-family="Helvetica" font-size="43.75" font-weight="bold" lengthAdjust="spacing" textLength="238.8672" x="4027.4414" y="1306.842">&#128246; WiFi NIC</text><text fill="#666666" font-family="Helvetica" font-size="43.75" font-weight="bold" lengthAdjust="spacing" textLength="318.75" x="3987.5" y="1361.8713">Shared via ICS</text></g><!--cluster Kali--><g id="cluster_Kali"><rect fill="#FFF8DC" filter="url(#fvjunez87s5wp)" height="1056.25" rx="7.8125" ry="7.8125" style="stroke:#D4AF37;stroke-width:3.125;" width="2284.375" x="21.875" y="737.9883"/><text fill="#000000" font-family="sans-serif" font-size="43.75" font-style="italic" lengthAdjust="spacing" textLength="121.875" x="1103.125" y="789.6545">&#171;Kali&#187;</text><text fill="#000000" font-family="sans-serif" font-size="43.75" font-weight="bold" lengthAdjust="spacing" textLength="318.75" x="1004.6875" y="844.6838">KALI LINUX VM</text><text fill="#666666" font-family="sans-serif" font-size="43.75" font-weight="bold" lengthAdjust="spacing" textLength="282.6172" x="1022.7539" y="899.7131">&#128039; VirtualBox</text></g><!--cluster KaliInterfaces--><g id="cluster_KaliInterfaces"><rect fill="#FFF9DC" filter="url(#fvjunez87s5wp)" height="218.75" rx="7.8125" ry="7.8125" style="stroke:#181818;stroke-width:3.125;" width="521.875" x="1709.375" y="1302.0508"/><text fill="#000000" font-family="sans-serif" font-size="43.75" font-weight="bold" lengthAdjust="spacing" textLength="473.2422" x="1733.6914" y="1353.717">&#128279; Network Interfaces</text></g><!--cluster KaliServices--><g id="cluster_KaliServices"><rect fill="#FFF8DC" filter="url(#fvjunez87s5wp)" height="734.375" rx="7.8125" ry="7.8125" style="stroke:#181818;stroke-width:3.125;" width="1537.5" x="96.875" y="984.8633"/><text fill="#000000" font-family="sans-serif" font-size="43.75" font-weight="bold" lengthAdjust="spacing" textLength="421.875" x="654.6875" y="1036.5295">&#129513; Internal Services</text></g><!--cluster Dnsmasq--><g id="cluster_Dnsmasq"><rect fill="#C8E6C9" filter="url(#fvjunez87s5wp)" height="471.875" rx="7.8125" ry="7.8125" style="stroke:#181818;stroke-width:3.125;" width="843.75" x="690.625" y="1147.3633"/><text fill="#000000" font-family="sans-serif" font-size="43.75" font-weight="bold" lengthAdjust="spacing" textLength="279.4922" x="972.7539" y="1199.0295">&#128994; DNSMASQ</text><text fill="#666666" font-family="sans-serif" font-size="43.75" font-weight="bold" lengthAdjust="spacing" textLength="284.375" x="970.3125" y="1254.0588">DHCP Server</text></g><!--cluster RogueAP--><g id="cluster_RogueAP"><rect fill="#E0F0FF" filter="url(#fvjunez87s5wp)" height="556.25" rx="7.8125" ry="7.8125" style="stroke:#3B73B9;stroke-width:3.125;" width="837.5" x="2406.25" y="1078.6133"/><text fill="#000000" font-family="sans-serif" font-size="43.75" font-style="italic" lengthAdjust="spacing" textLength="184.375" x="2732.8125" y="1130.2795">&#171;Router&#187;</text><text fill="#000000" font-family="sans-serif" font-size="43.75" font-weight="bold" lengthAdjust="spacing" textLength="228.125" x="2710.9375" y="1185.3088">ROGUE AP</text><text fill="#666666" font-family="sans-serif" font-size="43.75" font-weight="bold" lengthAdjust="spacing" textLength="441.9922" x="2604.0039" y="1240.3381">&#128225; Phantom Network</text></g><!--entity Internet--><g id="elem_Internet"><path d="M4230.5036,442.9275 C4239.0747,426.1924 4254.7844,423.0922 4268.0243,437.2585 C4277.4087,419.8342 4287.843,413.1031 4304.0339,430.1478 C4313.512,410.1862 4335.2719,406.5001 4347.9498,426.644 C4360.3285,409.7742 4374.672,407.1317 4387.4605,426.1934 C4403.4087,409.9746 4416.4317,409.1306 4426.0468,432.3843 C4439.1923,414.7222 4451.8855,416.0379 4461.3137,435.8799 C4473.4977,417.3496 4489.8807,419.9324 4501.6479,436.3609 C4514.2309,420.764 4530.5742,425.2529 4536.4434,443.3037 C4565.3137,448.5671 4568.0474,472.1101 4551.8387,491.7105 C4571.7631,515.3605 4565.9848,533.9826 4536.2574,542.3576 C4528.9274,558.0104 4512.8992,560.6176 4503.7683,544.1809 C4493.5321,562.501 4473.9062,566.178 4463.245,544.6127 C4456.6082,567.0841 4442.2357,568.7812 4426.5665,553.3545 C4417.1582,575.5363 4396.9916,571.9039 4385.3905,555.7071 C4373.2812,578.1822 4352.8236,572.3928 4343.2872,553.1127 C4328.7523,564.5782 4318.0124,561.0619 4310.1049,545.096 C4297.7382,562.0056 4280.9918,565.0765 4270.2348,543.4313 C4258.7901,563.1533 4240.9534,559.3274 4231.3295,541.5426 C4199.1774,538.032 4188.3653,517.9862 4204.2607,489.4897 C4192.1478,463.8538 4202.938,446.2002 4230.5036,442.9275 " fill="#ADD8E6" filter="url(#fvjunez87s5wp)" style="stroke:#181818;stroke-width:1.5625;"/><text fill="#000000" font-family="sans-serif" font-size="43.75" lengthAdjust="spacing" textLength="265.625" x="4248.4375" y="505.2795">&#127757; INTERNET</text></g><!--entity TPLink--><g id="elem_TPLink"><rect fill="#FAFAFA" filter="url(#fvjunez87s5wp)" height="203.8086" rx="7.8125" ry="7.8125" style="stroke:#444444;stroke-width:1.5625;" width="431.25" x="3393.75" y="1341.1133"/><rect fill="#FAFAFA" height="31.25" style="stroke:#444444;stroke-width:1.5625;" width="46.875" x="3762.5" y="1356.7383"/><rect fill="#FAFAFA" height="6.25" style="stroke:#444444;stroke-width:1.5625;" width="12.5" x="3756.25" y="1362.9883"/><rect fill="#FAFAFA" height="6.25" style="stroke:#444444;stroke-width:1.5625;" width="12.5" x="3756.25" y="1375.4883"/><text fill="#000000" font-family="Helvetica" font-size="43.75" lengthAdjust="spacing" textLength="306.25" x="3440.625" y="1449.0295">&#128268; TP-Link USB</text><text fill="#666666" font-family="Helvetica" font-size="43.75" lengthAdjust="spacing" textLength="287.5" x="3450" y="1504.0588">Bridged to Kali</text></g><g id="elem_GMN8"><path d="M3393.75,1844.2383 L3393.75,2130.9814 A0,0 0 0 0 3393.75,2130.9814 L4206.25,2130.9814 A0,0 0 0 0 4206.25,2130.9814 L4206.25,1875.4883 L4175,1844.2383 L3693.75,1844.2383 L3681.25,1545.2383 L3668.75,1844.2383 L3393.75,1844.2383 A0,0 0 0 0 3393.75,1844.2383 " fill="#FEFFDD" filter="url(#fvjunez87s5wp)" style="stroke:#181818;stroke-width:1.5625;"/><path d="M4175,1844.2383 L4175,1875.4883 L4206.25,1875.4883 L4175,1844.2383 " fill="#FEFFDD" style="stroke:#181818;stroke-width:1.5625;"/><text fill="#000000" font-family="sans-serif" font-size="40.625" font-weight="bold" lengthAdjust="spacing" textLength="515.625" x="3528.125" y="1902.0355">Critical ICS Configuration:</text><text fill="#000000" font-family="sans-serif" font-size="40.625" lengthAdjust="spacing" textLength="393.75" x="3589.0625" y="1953.1342">- WiFi NIC shared via:</text><text fill="#000000" font-family="sans-serif" font-size="40.625" lengthAdjust="spacing" textLength="721.875" x="3437.5" y="2004.2328">Control Panel &gt; Network Sharing Center</text><text fill="#000000" font-family="sans-serif" font-size="40.625" lengthAdjust="spacing" textLength="456.25" x="3557.8125" y="2055.3314">- TP-Link adapter acts as</text><text fill="#000000" font-family="sans-serif" font-size="40.625" lengthAdjust="spacing" textLength="296.875" x="3650" y="2106.4301">ICS client bridge</text></g><!--entity ICS--><g id="elem_ICS"><ellipse cx="4228.125" cy="1442.6758" fill="#FFA500" filter="url(#fvjunez87s5wp)" rx="25" ry="25" style="stroke:#181818;stroke-width:1.5625;"/><text fill="#000000" font-family="sans-serif" font-size="43.75" lengthAdjust="spacing" textLength="125" x="4165.625" y="1541.217">&#128257; ICS</text></g><!--entity Eth0--><g id="elem_Eth0"><ellipse cx="2031.25" cy="1442.6758" fill="#F1F1F1" filter="url(#fvjunez87s5wp)" rx="25" ry="25" style="stroke:#181818;stroke-width:1.5625;"/><text fill="#000000" font-family="sans-serif" font-size="43.75" lengthAdjust="spacing" textLength="284.375" x="1889.0625" y="1541.217">eth0 (Bridged)</text><text fill="#666666" font-family="sans-serif" font-size="43.75" lengthAdjust="spacing" textLength="306.25" x="1878.125" y="1596.2463">ICS Connection</text></g><!--entity Eth1--><g id="elem_Eth1"><ellipse cx="1787.5" cy="1442.6758" fill="#F1F1F1" filter="url(#fvjunez87s5wp)" rx="25" ry="25" style="stroke:#181818;stroke-width:1.5625;"/><text fill="#000000" font-family="sans-serif" font-size="43.75" lengthAdjust="spacing" textLength="284.375" x="1645.3125" y="1541.217">eth1 (Bridged)</text><text fill="#666666" font-family="sans-serif" font-size="43.75" lengthAdjust="spacing" textLength="293.75" x="1640.625" y="1596.2463">TP-Link Bridge</text></g><!--entity Iptables--><g id="elem_Iptables"><rect fill="#F8BBD0" filter="url(#fvjunez87s5wp)" height="172.5586" rx="7.8125" ry="7.8125" style="stroke:#181818;stroke-width:1.5625;" width="381.25" x="146.875" y="1356.7383"/><text fill="#000000" font-family="sans-serif" font-size="43.75" font-weight="bold" lengthAdjust="spacing" textLength="263.8672" x="205.5664" y="1433.4045">&#128272; IPTABLES</text><text fill="#666666" font-family="sans-serif" font-size="43.75" lengthAdjust="spacing" textLength="318.75" x="178.125" y="1488.4338">NAT Forwarding</text></g><!--entity Pool--><g id="elem_Pool"><rect fill="#FAFAFA" filter="url(#fvjunez87s5wp)" height="203.8086" rx="7.8125" ry="7.8125" style="stroke:#444444;stroke-width:1.5625;" width="553.125" x="904.6875" y="1341.1133"/><rect fill="#FAFAFA" height="31.25" style="stroke:#444444;stroke-width:1.5625;" width="46.875" x="1395.3125" y="1356.7383"/><rect fill="#FAFAFA" height="6.25" style="stroke:#444444;stroke-width:1.5625;" width="12.5" x="1389.0625" y="1362.9883"/><rect fill="#FAFAFA" height="6.25" style="stroke:#444444;stroke-width:1.5625;" width="12.5" x="1389.0625" y="1375.4883"/><text fill="#000000" font-family="Helvetica" font-size="43.75" lengthAdjust="spacing" textLength="206.25" x="1062.5" y="1449.0295">&#128203; IP Pool:</text><text fill="#000000" font-family="Helvetica" font-size="43.75" lengthAdjust="spacing" textLength="428.125" x="951.5625" y="1504.0588">192.168.137.100-200</text></g><g id="elem_GMN20"><path d="M2618.75,1325.4883 L2618.75,1561.1328 L3168.75,1561.1328 L3168.75,1356.7383 L3137.5,1325.4883 L2618.75,1325.4883 " fill="#FEFFDD" filter="url(#fvjunez87s5wp)" style="stroke:#181818;stroke-width:1.5625;"/><path d="M3137.5,1325.4883 L3137.5,1356.7383 L3168.75,1356.7383 L3137.5,1325.4883 " fill="#FEFFDD" style="stroke:#181818;stroke-width:3.125;"/><text fill="#000000" font-family="sans-serif" font-size="40.625" font-weight="bold" lengthAdjust="spacing" textLength="281.25" x="2739.0625" y="1383.2855">Configuration:</text><text fill="#000000" font-family="sans-serif" font-size="40.625" lengthAdjust="spacing" textLength="150" x="2720.3125" y="1434.3842">- DHCP:</text><text fill="#FF0000" font-family="sans-serif" font-size="40.625" lengthAdjust="spacing" textLength="156.25" x="2882.8125" y="1434.3842">Disabled</text><text fill="#000000" font-family="sans-serif" font-size="40.625" lengthAdjust="spacing" textLength="440.625" x="2659.375" y="1485.4828">- SSID: "Free_WiFi_AP"</text><text fill="#000000" font-family="sans-serif" font-size="40.625" lengthAdjust="spacing" textLength="484.375" x="2637.5" y="1536.5814">- LAN Port Only (No WAN)</text></g><!--entity Laptop--><g id="elem_Laptop"><rect fill="#FCE4EC" filter="url(#fvjunez87s5wp)" height="172.5586" rx="7.8125" ry="7.8125" style="stroke:#C2185B;stroke-width:1.5625;" width="256.25" x="2081.25" y="1902.0508"/><text fill="#000000" font-family="sans-serif" font-size="43.75" font-style="italic" lengthAdjust="spacing" textLength="162.5" x="2128.125" y="1978.717">&#171;Client&#187;</text><text fill="#000000" font-family="sans-serif" font-size="43.75" lengthAdjust="spacing" textLength="193.75" x="2112.5" y="2033.7463">&#128187; Laptop</text></g><!--entity Phone--><g id="elem_Phone"><rect fill="#FCE4EC" filter="url(#fvjunez87s5wp)" height="172.5586" rx="7.8125" ry="7.8125" style="stroke:#C2185B;stroke-width:1.5625;" width="246.875" x="2526.5625" y="1902.0508"/><text fill="#000000" font-family="sans-serif" font-size="43.75" font-style="italic" lengthAdjust="spacing" textLength="162.5" x="2568.75" y="1978.717">&#171;Client&#187;</text><text fill="#000000" font-family="sans-serif" font-size="43.75" lengthAdjust="spacing" textLength="184.375" x="2557.8125" y="2033.7463">&#128241; Phone</text></g><!--link Iptables to GMN20--><g id="link_Iptables_GMN20"><path d="M242.1875,1529.1445 C242.1875,1635.8945 242.1875,1803.6133 242.1875,1803.6133 C242.1875,1803.6133 2696.0938,1803.6133 2696.0938,1803.6133 C2696.0938,1803.6133 2696.0938,1666.1133 2696.0938,1560.8633 " fill="none" id="Iptables-GMN20" style="stroke:#181818;stroke-width:3.125;stroke-dasharray:7.0,7.0;"/></g><!--link Internet to MainRouter--><g id="link_Internet_MainRouter"><path d="M4201.1875,487.9883 C4116.375,487.9883 4049.0625,487.9883 4033.6875,487.9883 " fill="none" id="Internet-to-MainRouter" style="stroke:#181818;stroke-width:3.125;"/><polygon fill="#181818" points="4014.9375,487.9883,4043.0625,500.4883,4030.5625,487.9883,4043.0625,475.4883,4014.9375,487.9883" style="stroke:#181818;stroke-width:3.125;"/><text fill="#4169E1" font-family="sans-serif" font-size="40.625" lengthAdjust="spacing" textLength="96.875" x="4008.0625" y="477.0355">WAN</text></g><!--link MainRouter to WifiNIC--><g id="link_MainRouter_WifiNIC"><path d="M4012.5,641.9223 C4012.5,644.6206 4012.5,647.3451 4012.5,650.0947 C4012.5,738.084 4012.5,851.9219 4012.5,965.7305 C4012.5,1022.6348 4012.5,1079.5317 4012.5,1133.1866 C4012.5,1160.0141 4012.5,1186.031 4012.5,1210.8331 C4012.5,1213.9334 4012.5,1198.2647 4012.5,1201.3262 " fill="none" id="MainRouter-to-WifiNIC" style="stroke:#181818;stroke-width:3.125;"/><polygon fill="#181818" points="4012.5,1220.0762,4025,1191.9512,4012.5,1204.4512,4000,1191.9512,4012.5,1220.0762" style="stroke:#181818;stroke-width:3.125;"/><text fill="#000080" font-family="sans-serif" font-size="40.625" lengthAdjust="spacing" textLength="200" x="4015.625" y="954.4105">WiFi Client</text></g><!--link WifiNIC to ICS--><g id="link_WifiNIC_ICS"><path d="M4012.6563,1444.2383 C4017.6875,1444.2383 4123.8125,1444.2383 4181.125,1444.2383 " fill="none" id="WifiNIC-to-ICS" style="stroke:#181818;stroke-width:3.125;"/><polygon fill="#181818" points="4199.875,1444.2383,4171.75,1431.7383,4184.25,1444.2383,4171.75,1456.7383,4199.875,1444.2383" style="stroke:#181818;stroke-width:3.125;"/><text fill="#FFA500" font-family="sans-serif" font-size="40.625" lengthAdjust="spacing" textLength="215.625" x="3887.5" y="1433.2855">ICS Sharing</text></g><!--link ICS to Eth0--><g id="link_ICS_Eth0"><path d="M4231.25,1471.6133 C4231.25,1517.1758 4231.25,1600.4883 4231.25,1600.4883 C4231.25,1600.4883 2040.625,1600.4883 2040.625,1600.4883 C2040.625,1600.4883 2040.625,1535.9258 2040.625,1490.3633 " fill="none" id="ICS-to-Eth0" style="stroke:#181818;stroke-width:3.125;"/><polygon fill="#181818" points="2040.625,1471.6133,2028.125,1499.7383,2040.625,1487.2383,2053.125,1499.7383,2040.625,1471.6133" style="stroke:#181818;stroke-width:3.125;"/><text fill="#FFA500" font-family="sans-serif" font-size="40.625" lengthAdjust="spacing" textLength="284.375" x="2848.4375" y="1645.7855">Bridged Internet</text></g><!--link Eth0 to Iptables--><g id="link_Eth0_Iptables"><path d="M2021.875,1471.1133 C2021.875,1549.4883 2021.875,1762.9883 2021.875,1762.9883 C2021.875,1762.9883 337.5,1762.9883 337.5,1762.9883 C337.5,1762.9883 337.5,1642.957 337.5,1548.1133 " fill="none" id="Eth0-to-Iptables" style="stroke:#181818;stroke-width:3.125;"/><polygon fill="#181818" points="337.5,1529.3633,325,1557.4883,337.5,1544.9883,350,1557.4883,337.5,1529.3633" style="stroke:#181818;stroke-width:3.125;"/><text fill="#000080" font-family="sans-serif" font-size="40.625" lengthAdjust="spacing" textLength="131.25" x="1074.4375" y="1808.2855">Ingress</text></g><!--link Iptables to Eth1--><g id="link_Iptables_Eth1"><path d="M432.8125,1529.6445 C432.8125,1611.7383 432.8125,1722.3633 432.8125,1722.3633 C432.8125,1722.3633 1787.5,1722.3633 1787.5,1722.3633 C1787.5,1722.3633 1787.5,1561.7695 1787.5,1490.3008 " fill="none" id="Iptables-to-Eth1" style="stroke:#181818;stroke-width:3.125;"/><polygon fill="#181818" points="1787.5,1471.5508,1775,1499.6758,1787.5,1487.1758,1800,1499.6758,1787.5,1471.5508" style="stroke:#181818;stroke-width:3.125;"/><text fill="#000080" font-family="sans-serif" font-size="40.625" lengthAdjust="spacing" textLength="128.125" x="1007.9375" y="1711.4105">Egress</text></g><!--link Eth1 to TPLink--><g id="link_Eth1_TPLink"><path d="M1801.5625,1471.1133 C1801.5625,1525.9883 1801.5625,1641.1133 1801.5625,1641.1133 C1801.5625,1641.1133 3537.5,1641.1133 3537.5,1641.1133 C3537.5,1641.1133 3537.5,1612.5508 3537.5,1564.1445 " fill="none" id="Eth1-to-TPLink" style="stroke:#181818;stroke-width:3.125;"/><polygon fill="#181818" points="3537.5,1545.3945,3525,1573.5195,3537.5,1561.0195,3550,1573.5195,3537.5,1545.3945" style="stroke:#181818;stroke-width:3.125;"/><text fill="#000080" font-family="sans-serif" font-size="40.625" lengthAdjust="spacing" textLength="212.5" x="2416.7813" y="1686.4105">USB Bridge</text></g><!--link TPLink to RogueAP--><g id="link_TPLink_RogueAP"><path d="M3609.375,1339.7383 C3609.375,1162.6445 3609.375,819.2383 3609.375,819.2383 C3609.375,819.2383 2431.25,819.2383 2431.25,819.2383 C2431.25,819.2383 2431.25,855.8066 2431.25,911.2305 C2431.25,938.9424 2431.25,971.3682 2431.25,1006.2937 C2431.25,1023.7565 2431.25,1041.8442 2431.25,1060.2801 C2431.25,1064.889 2431.25,1069.5198 2431.25,1074.1679 C2431.25,1075.33 2431.25,1057.7431 2431.25,1058.9073 " fill="none" id="TPLink-to-RogueAP" style="stroke:#181818;stroke-width:3.125;"/><polygon fill="#181818" points="2431.25,1077.6573,2443.75,1049.5323,2431.25,1062.0323,2418.75,1049.5323,2431.25,1077.6573" style="stroke:#181818;stroke-width:3.125;"/><text fill="#000080" font-family="sans-serif" font-size="40.625" lengthAdjust="spacing" textLength="193.75" x="2772.8438" y="808.2855">LAN Cable</text></g><!--link RogueAP to Laptop--><g id="link_RogueAP_Laptop"><path d="M2431.25,1636.2812 C2431.25,1638.2656 2431.25,1640.2562 2431.25,1642.2524 C2431.25,1646.2448 2431.25,1650.2598 2431.25,1654.2935 C2431.25,1662.3611 2431.25,1670.5037 2431.25,1678.6913 C2431.25,1695.0664 2431.25,1711.6211 2431.25,1728.1133 C2431.25,1860.0508 2431.25,1987.9883 2431.25,1987.9883 C2431.25,1987.9883 2406,1987.9883 2357.1875,1987.9883 " fill="none" id="RogueAP-to-Laptop" style="stroke:#181818;stroke-width:3.125;"/><polygon fill="#181818" points="2338.4375,1987.9883,2366.5625,2000.4883,2354.0625,1987.9883,2366.5625,1975.4883,2338.4375,1987.9883" style="stroke:#181818;stroke-width:3.125;"/><text fill="#006400" font-family="sans-serif" font-size="40.625" lengthAdjust="spacing" textLength="312.5" x="2115.625" y="1807.8168">Broadcasts SSID</text><text fill="#000000" font-family="sans-serif" font-size="40.625" lengthAdjust="spacing" textLength="53.125" x="2245.3125" y="1858.9154">&#11015;&#65039;</text></g><!--link RogueAP to Phone--><g id="link_RogueAP_Phone"><path d="M2572.6563,1635.8959 C2572.6563,1636.6588 2572.6563,1637.4226 2572.6563,1638.1873 C2572.6563,1639.7167 2572.6563,1641.2497 2572.6563,1642.786 C2572.6563,1645.8588 2572.6563,1648.945 2572.6563,1652.043 C2572.6563,1664.4351 2572.6563,1677.0154 2572.6563,1689.6729 C2572.6563,1714.9878 2572.6563,1740.6113 2572.6563,1765.6543 C2572.6563,1815.7402 2572.6563,1844.7539 2572.6563,1883.082 " fill="none" id="RogueAP-to-Phone" style="stroke:#181818;stroke-width:3.125;"/><polygon fill="#181818" points="2572.6563,1901.832,2585.1563,1873.707,2572.6563,1886.207,2560.1563,1873.707,2572.6563,1901.832" style="stroke:#181818;stroke-width:3.125;"/><text fill="#006400" font-family="sans-serif" font-size="40.625" lengthAdjust="spacing" textLength="196.875" x="2372.6563" y="1541.5668">Assigns IP</text><text fill="#000000" font-family="sans-serif" font-size="40.625" lengthAdjust="spacing" textLength="53.125" x="2444.5313" y="1592.6654">&#11015;&#65039;</text></g><!--link Eth1 to Dnsmasq--><g id="link_Eth1_Dnsmasq"><path d="M1787.5,1413.6133 C1787.5,1326.332 1787.5,1072.3633 1787.5,1072.3633 C1787.5,1072.3633 715.625,1072.3633 715.625,1072.3633 C715.625,1072.3633 715.625,1093.3887 715.625,1125.4194 C715.625,1129.4233 715.625,1133.5991 715.625,1137.9273 C715.625,1140.0914 715.625,1142.2936 715.625,1144.5314 C715.625,1145.0909 715.625,1126.9026 715.625,1127.4664 " fill="none" id="Eth1-to-Dnsmasq" style="stroke:#181818;stroke-width:3.125;"/><polygon fill="#181818" points="715.625,1146.2164,728.125,1118.0914,715.625,1130.5914,703.125,1118.0914,715.625,1146.2164" style="stroke:#181818;stroke-width:3.125;"/><text fill="#008000" font-family="sans-serif" font-size="40.625" lengthAdjust="spacing" textLength="296.875" x="938.2188" y="1117.6605">DHCP Requests</text></g><!--link Dnsmasq to Eth1--><g id="link_Dnsmasq_Eth1"><path d="M715.625,1620.3846 C715.625,1620.779 715.625,1621.1723 715.625,1621.5645 C715.625,1624.7018 715.625,1627.7659 715.625,1630.7444 C715.625,1636.7012 715.625,1642.3151 715.625,1647.4849 C715.625,1668.1641 715.625,1681.7383 715.625,1681.7383 C715.625,1681.7383 1773.4375,1681.7383 1773.4375,1681.7383 C1773.4375,1681.7383 1773.4375,1553.1133 1773.4375,1489.8008 " fill="none" id="Dnsmasq-to-Eth1" style="stroke:#181818;stroke-width:3.125;"/><polygon fill="#181818" points="1773.4375,1471.0508,1760.9375,1499.1758,1773.4375,1486.6758,1785.9375,1499.1758,1773.4375,1471.0508" style="stroke:#181818;stroke-width:3.125;"/><text fill="#008000" font-family="sans-serif" font-size="40.625" lengthAdjust="spacing" textLength="287.5" x="1234.25" y="1670.7855">IP Assignments</text></g><rect fill="#DDDDDD" height="373.9258" id="_legend" rx="23.4375" ry="23.4375" style="stroke:#000000;stroke-width:3.125;" width="703.125" x="3890.625" y="2253.6133"/><text fill="#000000" font-family="sans-serif" font-size="43.75" font-weight="bold" lengthAdjust="spacing" textLength="178.125" x="4153.125" y="2314.6545">LEGEND</text><text fill="#000000" font-family="sans-serif" font-size="43.75" lengthAdjust="spacing" textLength="12.5" x="3906.25" y="2375.9338">&#160;</text><text fill="#FFA500" font-family="sans-serif" font-size="43.75" lengthAdjust="spacing" textLength="150" x="3918.75" y="2375.9338">Orange</text><text fill="#000000" font-family="sans-serif" font-size="43.75" lengthAdjust="spacing" textLength="337.5" x="4143.75" y="2375.9338">ICS Sharing Path</text><text fill="#000000" font-family="sans-serif" font-size="43.75" lengthAdjust="spacing" textLength="12.5" x="3906.25" y="2430.9631">&#160;</text><text fill="#000080" font-family="sans-serif" font-size="43.75" lengthAdjust="spacing" textLength="96.875" x="3918.75" y="2430.9631">Navy</text><text fill="#000000" font-family="sans-serif" font-size="43.75" lengthAdjust="spacing" textLength="278.125" x="4143.75" y="2430.9631">Physical Links</text><text fill="#000000" font-family="sans-serif" font-size="43.75" lengthAdjust="spacing" textLength="12.5" x="3906.25" y="2485.9924">&#160;</text><text fill="#008000" font-family="sans-serif" font-size="43.75" lengthAdjust="spacing" textLength="125" x="3918.75" y="2485.9924">Green</text><text fill="#000000" font-family="sans-serif" font-size="43.75" lengthAdjust="spacing" textLength="275" x="4143.75" y="2485.9924">DHCP Control</text><text fill="#000000" font-family="sans-serif" font-size="43.75" lengthAdjust="spacing" textLength="200" x="3918.75" y="2541.0217">Rogue AP</text><text fill="#000000" font-family="sans-serif" font-size="43.75" lengthAdjust="spacing" textLength="300" x="4143.75" y="2541.0217">DHCP-disabled</text><text fill="#000000" font-family="sans-serif" font-size="43.75" lengthAdjust="spacing" textLength="68.75" x="3918.75" y="2596.051">ICS</text><text fill="#000000" font-family="sans-serif" font-size="43.75" lengthAdjust="spacing" textLength="421.875" x="4143.75" y="2596.051">Windows NAT Engine</text><line style="stroke:#000000;stroke-width:3.125;" x1="3906.25" x2="4578.125" y1="2330.5176" y2="2330.5176"/><line style="stroke:#000000;stroke-width:3.125;" x1="3906.25" x2="4578.125" y1="2385.5469" y2="2385.5469"/><line style="stroke:#000000;stroke-width:3.125;" x1="3906.25" x2="4578.125" y1="2440.5762" y2="2440.5762"/><line style="stroke:#000000;stroke-width:3.125;" x1="3906.25" x2="4578.125" y1="2495.6055" y2="2495.6055"/><line style="stroke:#000000;stroke-width:3.125;" x1="3906.25" x2="4578.125" y1="2550.6348" y2="2550.6348"/><line style="stroke:#000000;stroke-width:3.125;" x1="3906.25" x2="4578.125" y1="2605.6641" y2="2605.6641"/><line style="stroke:#000000;stroke-width:3.125;" x1="3906.25" x2="3906.25" y1="2330.5176" y2="2605.6641"/><line style="stroke:#000000;stroke-width:3.125;" x1="4131.25" x2="4131.25" y1="2330.5176" y2="2605.6641"/><line style="stroke:#000000;stroke-width:3.125;" x1="4578.125" x2="4578.125" y1="2330.5176" y2="2605.6641"/><text fill="#000000" font-family="sans-serif" font-size="37.5" font-style="italic" lengthAdjust="spacing" textLength="1090.625" x="1770.3125" y="2710.2173">Figure 1: ICS-enabled Windows 11 sharing internet to Kali Linux</text><!--SRC=[VLVTRjis5BxNKn0ki2K1tDX9ysUu0cHPJemwYXSvxIuA58p4s5naqfNaf5xJYrtjOXrMh0LsiG71TbDisCrkXW5xcxt0yWWx94LQjfmbW2AG7p-Ud- -SewINb4rmWiSecb2qNQjPgLb9HpZYrvGDKPPCIM4Z8XTu6cS3yYfpOZfaOy8o5CA390LKJ1d9PXE2U9ADU663yOYaP89sYvSbc5sAnRsQPNsA7Zz-Z89i5jDqX5mUyoGLImLuoCSJpiIzhoq4FoqSNWuJFcMHXAC77KVygZsUH2J9rn_97xdUuIppyPYW8n9VaOo6s7fJj8Y46MR3cAo-ejb4Jt1CaMt3PPtEVjjTlgo8Q3zoEjjxz_2SyYc4JkAyMgVMwQnWAc2sMtlRhODxk8vucYccxOxhhRB98BRs70zoi9h7ZQc8hlJEzHwjP2fWtAtw_auBufSdRq0p25m08QISoTnbSgMPqYz9OwjcDy_jPYXu6W-sl9tsmOvzT_ls7JezEJppaDD7_OH_0QURcn9aDpS1loaEsrQ89v9LSTMtx2QrEtGuJGYgDr3N3Qg4uVEOHEWPPQ3W5DNhGio9a38LAWLXeeohxFGecxvgRb93dtlGrS1Fq36cJ2T0k39NHcLZuzZf-c3ssS0xtTXuphHJkxkxuD6FFw5kq4U7E2FNU5P12ud4gMJE5vJ8mfXF8rI1M7oBkZvm-jwW8f36d0TGSQFiF8QADD6MAJt6uGXAhcpXqKamGCUEUzJrlRA9lzqMmxG6uKEU2j-wj5VB1MoGhxcTflx0rlT_0aM78h_hBh8747H8mnN58YtIZsVqWW8kfv5KD0c5eNUt7xuoC646b9MpKrC2VLE-zSDRDEXN8NsNw2neBLxSIcWqX9lp94lAGLzWBKd4U4RGESyoFZPsW2BTX8es4ClhNSukXAgm45j32D10gyPVgIlbOiDi8t4sItYC-fYH6Dd89zarJovHaAlGLSropgSzmH686zI0mom5emkKmgHG5Tovz4xk4HP9P-PQc8iQFJs6V8ud2Ry22tju1a9RBylZYTFhebxNF_iS3fJryUuZUagJR8hZ5dyb5Q6R6iHKlgfKoiUdg5gjAgrUu92aQ6t09-jYKMuNxeNy_M32CZzGqQm53j5U3zf5oL2zYIea6zNGMfxlzKNZyomorOKajGVmUsZgzz7etAXTJLFFTLdmEo395PLUjwIqxd7yuwzvDOFGz17Zj-78Xqh1wuMitTtU_eBQVd3i19yj9wrzvFObCqaaRvkbOvo-X2wzx-sw1mNASYb_WxhGV3cF6yzP_M3hONrt_s5zU-zXlLQhRjLgaazi6uey0YiC_F0Ek0PEg-S5onRwpW36RtADamZAGLNy91DTHpY-tsgrTTaRNP_ouPI8oL0Ii9uPPUs-_ndrHvX1AhJKoYrOyWBjwtbZI4I7NUWB_zSAHBGRAByOUe7TfgdidmLC47JR3LJf98Iy4AtZXTEl5BPxZWz1JJ9qmk8PMlCvUkRuw_SKU3vrsqHhZSJyseIdLE1tjz__3SK_oVX4EZyVsk2yMb-4l_y3WWQ2AAFbifcFC6VpGO4wmW9nhvbILHd3gbsSSFCWyHcEnGIpmKshWAZ2669mI0y9SuBXgvajUwuooD8808igDq0Etv538Yi_xxMMU0UOgFmIJiy9RRSbKO9Kgt7HX2uR9YHDBREjYEjBC4-Xv0uWrEHPmi3CoZkAbUy3Kejn4IhauOhxbYGmxstgyrYVrc5KsPsJHJY1hpn26FZDSHJY58QCaEPpzi_lN__xrtSb1fdnLGHEciA7FrHjtvpDRPFDnmX2XG2OT0yoN8f7ea_9ooa1MomDgfR2gj3GcjJ5uZ-ELD_O8qDH9UAwMBtE2nYAj-STUdxR5EtDaWHEv1zOBcW6vdOsGZUBU9aA7nwmr1_DKlcX81ANBYELiOVY2OlIHVr1e96ccwdzQfJt30CGrjoOBpFHBpqs59ztDnPugFoq_WC0]--></g></svg>